<svg xmlns="http://www.w3.org/2000/svg" version="1.1" xmlns:xlink="http://www.w3.org/1999/xlink" width="38" height="38"><svg xmlns="http://www.w3.org/2000/svg" version="1.1" xmlns:xlink="http://www.w3.org/1999/xlink" width="38" height="38"><svg width="38" height="38" viewBox="0 0 38 38" fill="none" xmlns="http://www.w3.org/2000/svg">
<rect width="38" height="38" fill="#374F2F"></rect>
<g clip-path="url(#clip0_160_7)">
<path d="M27 12C27 15.3781 24.6063 18.1969 21.425 18.8562C21.1781 17.0406 20.3625 15.4062 19.1594 14.1406C20.4125 12.25 22.5594 11 25 11H26C26.5531 11 27 11.4469 27 12ZM11 14C11 13.4469 11.4469 13 12 13H13C16.8656 13 20 16.1344 20 20V26C20 26.5531 19.5531 27 19 27C18.4469 27 18 26.5531 18 26V21C14.1344 21 11 17.8656 11 14Z" fill="#E9E4D8"></path>
</g>
<defs>
<clipPath id="clip0_160_7">
<rect width="16" height="16" fill="white" transform="translate(11 11)"></rect>
</clipPath>
</defs>
</svg></svg><style>@media (prefers-color-scheme: light) { :root { filter: none; } }
@media (prefers-color-scheme: dark) { :root { filter: none; } }
</style></svg>