<svg width="23" height="23" viewBox="0 0 23 23" fill="none" xmlns="http://www.w3.org/2000/svg">
<g clip-path="url(#clip0_199_97)">
<path d="M13.0187 0C5.8279 0 0 5.03613 0 11.25C0 17.4639 5.8279 22.5 13.0187 22.5C16.5175 22.5 19.6958 21.3047 22.0351 19.3623C22.4064 19.0547 22.5132 18.5757 22.3047 18.1714C22.0962 17.7671 21.608 17.5166 21.0943 17.5518C20.8452 17.5693 20.596 17.5781 20.3417 17.5781C15.1749 17.5781 10.9845 13.957 10.9845 9.49219C10.9845 6.32373 13.095 3.57715 16.1767 2.25C16.6395 2.05225 16.904 1.62158 16.8429 1.17773C16.7819 0.733887 16.4056 0.373535 15.9021 0.276855C14.9715 0.0966797 14.0053 0 13.0187 0Z" fill="#E9E4D8"/>
</g>
<defs>
<clipPath id="clip0_199_97">
<rect width="23" height="23" fill="white"/>
</clipPath>
</defs>
</svg>
