<svg width="23" height="23" viewBox="0 0 23 23" fill="none" xmlns="http://www.w3.org/2000/svg">
<rect width="1.60716" height="4.01789" rx="0.803579" transform="matrix(-0.701211 -0.712954 0.712916 -0.701249 3.71484 19.9414)" fill="#374F2F"/>
<rect width="1.60716" height="4.01789" rx="0.803579" transform="matrix(-0.701264 0.712902 -0.712865 -0.701302 19.832 18.7695)" fill="#374F2F"/>
<ellipse cx="11.2499" cy="11.2497" rx="5.6249" ry="5.6252" fill="#374F2F"/>
<rect x="10.4443" width="1.60711" height="4.018" rx="0.803557" fill="#374F2F"/>
<rect x="10.4443" y="18.4819" width="1.60711" height="4.018" rx="0.803557" fill="#374F2F"/>
<rect width="1.60716" height="4.01789" rx="0.803579" transform="matrix(0.704165 0.710037 -0.709999 0.704202 18.6279 2.70459)" fill="#374F2F"/>
<rect width="1.60716" height="4.01789" rx="0.803579" transform="matrix(0.70412 -0.710081 0.710044 0.704158 2.64551 3.92969)" fill="#374F2F"/>
<rect y="12.0532" width="1.6072" height="4.01779" rx="0.8036" transform="rotate(-90 0 12.0532)" fill="#374F2F"/>
<rect x="18.4844" y="12.0532" width="1.6072" height="4.01779" rx="0.8036" transform="rotate(-90 18.4844 12.0532)" fill="#374F2F"/>
</svg>
