<svg width="16" height="16" viewBox="0 0 16 16" fill="none" xmlns="http://www.w3.org/2000/svg">
<path d="M8.96843 0C4.01477 0 0 3.46934 0 7.75C0 12.0307 4.01477 15.5 8.96843 15.5C11.3787 15.5 13.5683 14.6766 15.1798 13.3385C15.4355 13.1266 15.5091 12.7966 15.3654 12.5181C15.2218 12.2396 14.8855 12.067 14.5317 12.0912C14.36 12.1033 14.1883 12.1094 14.0132 12.1094C10.4538 12.1094 7.56711 9.61484 7.56711 6.53906C7.56711 4.35635 9.02098 2.46426 11.144 1.55C11.4628 1.41377 11.6449 1.11709 11.6029 0.811328C11.5609 0.505566 11.3016 0.257324 10.9548 0.190723C10.3137 0.0666016 9.64807 0 8.96843 0Z" fill="#374F2F"/>
</svg>
