<svg width="16" height="16" viewBox="0 0 16 16" fill="none" xmlns="http://www.w3.org/2000/svg">
<rect x="2.55859" y="13.7373" width="1.10714" height="2.76786" rx="0.553571" transform="rotate(-134.526 2.55859 13.7373)" fill="#E9E4D8"/>
<rect x="13.6631" y="12.9287" width="1.10714" height="2.76786" rx="0.553571" transform="rotate(134.53 13.6631 12.9287)" fill="#E9E4D8"/>
<ellipse cx="7.74902" cy="7.75" rx="3.875" ry="3.875" fill="#E9E4D8"/>
<rect x="7.19531" width="1.10714" height="2.76786" rx="0.553571" fill="#E9E4D8"/>
<rect x="7.19531" y="12.7324" width="1.10714" height="2.76786" rx="0.553571" fill="#E9E4D8"/>
<rect x="12.833" y="1.86328" width="1.10714" height="2.76786" rx="0.553571" transform="rotate(45.2364 12.833 1.86328)" fill="#E9E4D8"/>
<rect x="1.82129" y="2.70654" width="1.10714" height="2.76786" rx="0.553571" transform="rotate(-45.24 1.82129 2.70654)" fill="#E9E4D8"/>
<rect y="8.30322" width="1.10714" height="2.76786" rx="0.553571" transform="rotate(-90 0 8.30322)" fill="#E9E4D8"/>
<rect x="12.7324" y="8.30322" width="1.10714" height="2.76786" rx="0.553571" transform="rotate(-90 12.7324 8.30322)" fill="#E9E4D8"/>
</svg>
